<svg xmlns="http://www.w3.org/2000/svg" width="512" height="512" viewBox="0 0 512 512">
  <defs>
    <linearGradient id="bg" x1="0%" y1="0%" x2="100%" y2="100%">
      <stop offset="0%" style="stop-color:#0f172a"/>
      <stop offset="100%" style="stop-color:#1e293b"/>
    </linearGradient>
    <linearGradient id="accent" x1="0%" y1="0%" x2="100%" y2="100%">
      <stop offset="0%" style="stop-color:#3b82f6"/>
      <stop offset="100%" style="stop-color:#6366f1"/>
    </linearGradient>
    <linearGradient id="glow" x1="0%" y1="0%" x2="100%" y2="100%">
      <stop offset="0%" style="stop-color:#60a5fa;stop-opacity:0.3"/>
      <stop offset="100%" style="stop-color:#818cf8;stop-opacity:0"/>
    </linearGradient>
  </defs>
  <rect width="512" height="512" rx="108" fill="url(#bg)"/>
  <circle cx="256" cy="240" r="120" fill="none" stroke="url(#glow)" stroke-width="40"/>
  <!-- Shield/Hexagon -->
  <path d="M256 100 L356 160 L356 280 L256 380 L156 280 L156 160 Z" fill="none" stroke="url(#accent)" stroke-width="8" stroke-linejoin="round" opacity="0.3"/>
  <path d="M256 130 L336 178 L336 270 L256 350 L176 270 L176 178 Z" fill="none" stroke="url(#accent)" stroke-width="4" stroke-linejoin="round" opacity="0.15"/>
  <!-- Central gear icon -->
  <g transform="translate(256,240)" fill="url(#accent)">
    <circle cx="0" cy="0" r="24" fill="none" stroke="url(#accent)" stroke-width="8"/>
    <rect x="-4" y="-56" width="8" height="20" rx="4"/>
    <rect x="-4" y="36" width="8" height="20" rx="4"/>
    <rect x="-56" y="-4" width="20" height="8" rx="4"/>
    <rect x="36" y="-4" width="20" height="8" rx="4"/>
    <rect x="30" y="-42" width="8" height="20" rx="4" transform="rotate(45)"/>
    <rect x="-38" y="22" width="8" height="20" rx="4" transform="rotate(45)"/>
    <rect x="22" y="30" width="20" height="8" rx="4" transform="rotate(45)"/>
    <rect x="-42" y="-38" width="20" height="8" rx="4" transform="rotate(45)"/>
  </g>
  <!-- T letter subtle -->
  <text x="256" y="440" text-anchor="middle" font-family="Arial,sans-serif" font-weight="900" font-size="48" fill="#3b82f6" letter-spacing="8" opacity="0.9">TITAN</text>
</svg>
